<svg xmlns="http://www.w3.org/2000/svg" width="1920" height="1260" viewBox="0 0 1920 1260">
  <defs>
    <style>
      .cls-1 {
        fill-rule: evenodd;
      }
    </style>
  </defs>
  <path id="Color_Fill_1" data-name="Color Fill 1" class="cls-1" d="M0,0H1920V799l-133-3c-12.57-2.292-35.37,3.67-41,0,13.93-8.59,22.78-50.59,15-75-9.98-31.313-36.89-51.19-72-58-27.15-5.265-61.61,24.336-76,16-2.75-18.137,5.83-41.976-3-57-50.27-19.444-113.51-5.563-175-15l-105-1c-60.2,0-126.98-3.311-180,4-38.21,5.269-85.52-4.227-113,12-12.02,62.929,10.05,133.657,15,182l-71-1c-19.12-5.063-50.7-14.951-80-10-30.411,5.138-56.764,7.429-94,8l-27,1-23-9c-21.037-4.724-48.727,1.912-66,5-13.674,2.445-28.593-.209-42,2l-68-3-64,2-77-10a536.011,536.011,0,0,1-69,11l-19-4-68,2-30-4c-50.9,7.192-96.205.917-148,8l-29-6c-19.435,1.877-55.87,7.671-77,8V0ZM1674,689c45.01-.643,78.96,40.079,61,84-14.94,36.532-58.99,48.175-99,60-12.1,3.576-38.85,11.057-52,5,0.06-6.622,18.92-73.664,22-77,6.42-6.949,14.1-6.676,18-17,6.37-16.869,7.85-31.5,20-42C1652.12,694.976,1663.31,693.734,1674,689Z"/>
</svg>
